<svg width="1000" height="1000" viewBox="0 0 1000 1000" fill="none" xmlns="http://www.w3.org/2000/svg">
<rect x="20" y="20" width="960" height="960" rx="287.692" fill="white"/>
<rect x="20" y="20" width="960" height="960" rx="287.692" stroke="#E5E5E5" stroke-width="40"/>
<line y1="-3.5" x2="18.0884" y2="-3.5" transform="matrix(-0.707107 0.707107 0.707107 0.707107 489.594 198)" stroke="black" stroke-width="7"/>
<line y1="-3.5" x2="72" y2="-3.5" transform="matrix(0 -1 -1 0 484.594 290)" stroke="black" stroke-width="7"/>
<line y1="-3.5" x2="12.7279" y2="-3.5" transform="matrix(-0.707107 -0.707107 -0.707107 0.707107 484.594 183)" stroke="black" stroke-width="7"/>
<line y1="-3.5" x2="58" y2="-3.5" transform="matrix(-1 0 0 1 460.594 110)" stroke="black" stroke-width="7"/>
<line y1="-3.5" x2="31.1127" y2="-3.5" transform="matrix(-0.707107 -0.707107 -0.707107 0.707107 477.594 130)" stroke="black" stroke-width="7"/>
<line y1="-3.5" x2="49" y2="-3.5" transform="matrix(0 -1 -1 0 475.594 174)" stroke="black" stroke-width="7"/>
<line y1="-3.5" x2="20" y2="-3.5" transform="matrix(0 -1 -1 0 482.594 198)" stroke="black" stroke-width="7"/>
<line y1="-3.5" x2="29.7321" y2="-3.5" transform="matrix(-0.672673 -0.73994 -0.73994 0.672673 486.594 223)" stroke="black" stroke-width="7"/>
<line y1="-3.5" x2="86.3134" y2="-3.5" transform="matrix(-0.683556 0.729898 0.729898 0.683556 407.594 108)" stroke="black" stroke-width="7"/>
<line y1="-3.5" x2="102" y2="-3.5" transform="matrix(0 1 1 0 350.594 166)" stroke="black" stroke-width="7"/>
<line y1="-3.5" x2="36" y2="-3.5" transform="matrix(-1 0 0 1 471.594 203)" stroke="black" stroke-width="7"/>
<line y1="-3.5" x2="32.5269" y2="-3.5" transform="matrix(-0.707107 0.707107 0.707107 0.707107 440.594 201)" stroke="black" stroke-width="7"/>
<line y1="-3.5" x2="66" y2="-3.5" transform="matrix(0 -1 -1 0 412.594 285)" stroke="black" stroke-width="7"/>
<path d="M389.342 315.752C387.986 317.13 385.77 317.148 384.392 315.793C383.014 314.437 382.996 312.221 384.351 310.843L389.342 315.752ZM419.594 285L389.342 315.752L384.351 310.843L414.604 280.091L419.594 285Z" fill="black"/>
<path d="M454.723 262.237C456.038 263.653 455.956 265.868 454.54 267.183C453.123 268.498 450.909 268.416 449.593 267L454.723 262.237ZM449.593 267L436.593 253L441.723 248.237L454.723 262.237L449.593 267Z" fill="black"/>
<line y1="-3.5" x2="29" y2="-3.5" transform="matrix(1 0 0 -1 412.594 248)" stroke="black" stroke-width="7"/>
<line y1="-3.5" x2="42.2888" y2="-3.5" transform="matrix(-0.70449 -0.709714 -0.709714 0.70449 373.386 298.013)" stroke="black" stroke-width="7"/>
<path d="M393.594 249C393.594 250.933 392.027 252.5 390.094 252.5C388.161 252.5 386.594 250.933 386.594 249H393.594ZM386.594 249V208H393.594V249H386.594Z" fill="black"/>
<line y1="-3.5" x2="46.6905" y2="-3.5" transform="matrix(-0.685365 0.7282 0.7282 0.685365 423.594 179)" stroke="black" stroke-width="7"/>
<path d="M382.594 181C380.661 181 379.094 179.433 379.094 177.5C379.094 175.567 380.661 174 382.594 174V181ZM382.594 174H457.594V181H382.594V174Z" fill="black"/>
<line y1="-3.5" x2="33.9411" y2="-3.5" transform="matrix(-0.707107 0.707107 0.707107 0.707107 481.594 157)" stroke="black" stroke-width="7"/>
<line y1="-3.5" x2="46.8615" y2="-3.5" transform="matrix(-0.640184 0.768221 0.768221 0.640184 491.594 290)" stroke="black" stroke-width="7"/>
<path d="M485.594 440C485.594 441.933 484.027 443.5 482.094 443.5C480.161 443.5 478.594 441.933 478.594 440H485.594ZM478.594 440V343H485.594V440H478.594Z" fill="black"/>
<line y1="-3.5" x2="35.3836" y2="-3.5" transform="matrix(-0.67828 -0.734803 -0.734803 0.67828 480.594 348)" stroke="black" stroke-width="7"/>
<line y1="-3.5" x2="50" y2="-3.5" transform="matrix(1 0 0 -1 413.594 318)" stroke="black" stroke-width="7"/>
<path d="M362.594 354C360.661 354 359.094 352.433 359.094 350.5C359.094 348.567 360.661 347 362.594 347V354ZM362.594 347H389.594V354H362.594V347Z" fill="black"/>
<line y1="-3.5" x2="42.45" y2="-3.5" transform="matrix(0.683157 -0.730271 -0.730271 -0.683157 384.594 349)" stroke="black" stroke-width="7"/>
<path d="M357.594 467C357.594 468.933 356.027 470.5 354.094 470.5C352.161 470.5 350.594 468.933 350.594 467H357.594ZM350.594 467V395H357.594V467H350.594Z" fill="black"/>
<line y1="-3.5" x2="63.6553" y2="-3.5" transform="matrix(-0.691223 -0.722642 -0.722642 0.691223 352.594 400)" stroke="black" stroke-width="7"/>
<line y1="-3.5" x2="91.2195" y2="-3.5" transform="matrix(-0.701604 0.712567 0.712567 0.701604 377.594 294)" stroke="black" stroke-width="7"/>
<path d="M373.094 467V388" stroke="black" stroke-width="7" stroke-linecap="round"/>
<line y1="-3.5" x2="41.7253" y2="-3.5" transform="matrix(0.695022 -0.718988 -0.718988 -0.695022 369.594 441)" stroke="black" stroke-width="7"/>
<path d="M396.594 376C396.594 374.067 398.161 372.5 400.094 372.5C402.027 372.5 403.594 374.067 403.594 376H396.594ZM396.594 416V376H403.594V416H396.594Z" fill="black"/>
<path d="M447.594 423C447.594 424.933 446.027 426.5 444.094 426.5C442.161 426.5 440.594 424.933 440.594 423H447.594ZM440.594 423V383H447.594V423H440.594Z" fill="black"/>
<line y1="-3.5" x2="56.5862" y2="-3.5" transform="matrix(0.689214 -0.724558 -0.724558 -0.689214 440.594 383)" stroke="black" stroke-width="7"/>
<line y1="-3.5" x2="17" y2="-3.5" transform="matrix(0 -1 -1 0 398.594 179)" stroke="black" stroke-width="7"/>
<line y1="-3.5" x2="38.8973" y2="-3.5" transform="matrix(-0.694136 0.719844 0.719844 0.694136 430.594 139)" stroke="black" stroke-width="7"/>
<path d="M439.594 134C441.527 134 443.094 135.567 443.094 137.5C443.094 139.433 441.527 141 439.594 141V134ZM439.594 141H425.594V134H439.594V141Z" fill="black"/>
<line y1="-3.5" x2="74" y2="-3.5" transform="matrix(0 -1 -1 0 258.594 320)" stroke="black" stroke-width="7"/>
<line y1="-3.5" x2="37" y2="-3.5" transform="matrix(-1 0 0 1 349.594 195)" stroke="black" stroke-width="7"/>
<line y1="-3.5" x2="79.2465" y2="-3.5" transform="matrix(-0.681419 0.731894 0.731894 0.681419 317.594 193)" stroke="black" stroke-width="7"/>
<path d="M301.594 251C301.594 249.067 303.161 247.5 305.094 247.5C307.027 247.5 308.594 249.067 308.594 251H301.594ZM301.594 282V251H308.594V282H301.594Z" fill="black"/>
<line y1="-3.5" x2="46" y2="-3.5" transform="matrix(-1 0 0 1 273.594 320)" stroke="black" stroke-width="7"/>
<line y1="-3.5" x2="51.6624" y2="-3.5" transform="matrix(-0.677476 0.735545 0.735545 0.677476 308.594 282)" stroke="black" stroke-width="7"/>
<line y1="-3.5" x2="119" y2="-3.5" transform="matrix(4.47961e-10 -1 -1 -4.47961e-10 206.594 455)" stroke="black" stroke-width="7"/>
<line y1="-3.5" x2="31.1448" y2="-3.5" transform="matrix(-0.674269 0.738486 0.738486 0.674269 232.594 318)" stroke="black" stroke-width="7"/>
<line x1="3.5" y1="-3.5" x2="46.5" y2="-3.5" transform="matrix(-1 0 0 1 258.594 455)" stroke="black" stroke-width="7" stroke-linecap="round"/>
<path d="M184.593 484C183.295 485.432 181.082 485.541 179.65 484.243C178.217 482.945 178.109 480.732 179.407 479.299L184.593 484ZM213.593 452L184.593 484L179.407 479.299L208.407 447.299L213.593 452Z" fill="black"/>
<line y1="-6" x2="62" y2="-6" transform="matrix(0 -1 -1 0 257.594 396)" stroke="black" stroke-width="12"/>
<path d="M350.274 475.714C352.562 478.111 352.473 481.909 350.076 484.197C347.679 486.485 343.881 486.397 341.593 484L350.274 475.714ZM341.593 484L257.593 396L266.274 387.714L350.274 475.714L341.593 484Z" fill="black"/>
<line y1="-6" x2="44" y2="-6" transform="matrix(-1 0 0 1 301.594 344)" stroke="black" stroke-width="12"/>
<line y1="-6" x2="51.225" y2="-6" transform="matrix(-0.624695 0.780869 0.780869 0.624695 333.594 304)" stroke="black" stroke-width="12"/>
<circle cx="10" cy="10" r="10" transform="matrix(-1 0 0 1 340.594 286)" fill="black" stroke="black" stroke-width="7"/>
<path d="M490.094 728C490.094 726.067 491.661 724.5 493.594 724.5C495.527 724.5 497.094 726.067 497.094 728H490.094ZM497.094 728V778H490.094V728H497.094Z" fill="black"/>
<line y1="-3.5" x2="45.4533" y2="-3.5" transform="matrix(-0.638018 0.770022 0.770022 0.638018 496.594 778)" stroke="black" stroke-width="7"/>
<line y1="-3.5" x2="29" y2="-3.5" transform="matrix(0 -1 -1 0 484.594 858)" stroke="black" stroke-width="7"/>
<line y1="-3.5" x2="35.3553" y2="-3.5" transform="matrix(-0.707107 -0.707107 -0.707107 0.707107 486.594 834)" stroke="black" stroke-width="7"/>
<line y1="-3.5" x2="47.3814" y2="-3.5" transform="matrix(0.696475 -0.717581 -0.717581 -0.696475 453.594 887)" stroke="black" stroke-width="7"/>
<line y1="-3.5" x2="58" y2="-3.5" transform="matrix(-1 4.0772e-10 4.0772e-10 1 458.594 892)" stroke="black" stroke-width="7"/>
<path d="M420.594 818C422.527 818 424.094 819.567 424.094 821.5C424.094 823.433 422.527 825 420.594 825V818ZM420.594 825H372.583V818H420.594V825Z" fill="black"/>
<path d="M449.594 845C451.527 845 453.094 846.567 453.094 848.5C453.094 850.433 451.527 852 449.594 852V845ZM449.594 852H398.594V845H449.594V852Z" fill="black"/>
<path d="M433.594 866C435.527 866 437.094 867.567 437.094 869.5C437.094 871.433 435.527 873 433.594 873V866ZM433.594 873H417.594V866H433.594V873Z" fill="black"/>
<line y1="-3.5" x2="63" y2="-3.5" transform="matrix(-1 0 0 1 393.594 843)" stroke="black" stroke-width="7"/>
<line y1="-3.5" x2="80" y2="-3.5" transform="matrix(-1 0 0 1 337.594 785)" stroke="black" stroke-width="7"/>
<line y1="-3.5" x2="51" y2="-3.5" transform="matrix(-1 0 0 1 255.594 653)" stroke="black" stroke-width="7"/>
<line y1="-3.5" x2="83" y2="-3.5" transform="matrix(0 1 1 0 211.594 646)" stroke="black" stroke-width="7"/>
<path d="M472.594 765C472.594 766.933 471.027 768.5 469.094 768.5C467.161 768.5 465.594 766.933 465.594 765H472.594ZM465.594 765V742H472.594V765H465.594Z" fill="black"/>
<line y1="-3.5" x2="29.6985" y2="-3.5" transform="matrix(-0.707107 -0.707107 -0.707107 0.707107 467.594 747)" stroke="black" stroke-width="7"/>
<path d="M483.58 686.115C484.929 684.731 487.145 684.702 488.529 686.051C489.914 687.4 489.943 689.616 488.594 691L483.58 686.115ZM488.594 691L450.594 730L445.58 725.115L483.58 686.115L488.594 691Z" fill="black"/>
<path d="M379.594 656C379.594 654.067 381.161 652.5 383.094 652.5C385.027 652.5 386.594 654.067 386.594 656H379.594ZM379.594 684V656H386.594V684H379.594Z" fill="black"/>
<line y1="-3.5" x2="62.2415" y2="-3.5" transform="matrix(-0.690858 -0.722991 -0.722991 0.690858 422.594 729)" stroke="black" stroke-width="7"/>
<line y1="-3.5" x2="32" y2="-3.5" transform="matrix(-1 0 0 1 454.594 729)" stroke="black" stroke-width="7"/>
<line y1="-3.5" x2="34" y2="-3.5" transform="matrix(-1 0 0 1 471.594 805)" stroke="black" stroke-width="7"/>
<line y1="-3.5" x2="40" y2="-3.5" transform="matrix(-3.22234e-10 -1 -1 3.22234e-10 419.594 785)" stroke="black" stroke-width="7"/>
<line y1="-3.5" x2="26.9072" y2="-3.5" transform="matrix(-0.668965 -0.743294 -0.743294 0.668965 437.594 805)" stroke="black" stroke-width="7"/>
<path d="M351.593 680C350.227 678.633 350.227 676.417 351.593 675.05C352.96 673.683 355.176 673.683 356.543 675.05L351.593 680ZM421.593 750L351.593 680L356.543 675.05L426.543 745.05L421.593 750Z" fill="black"/>
<line y1="-3.5" x2="43.1856" y2="-3.5" transform="matrix(-0.671519 -0.740987 -0.740987 0.671519 417.594 873)" stroke="black" stroke-width="7"/>
<line y1="-3.5" x2="67.2086" y2="-3.5" transform="matrix(-0.684436 -0.729073 -0.729073 0.684436 400.594 892)" stroke="black" stroke-width="7"/>
<line y1="-3.5" x2="58" y2="-3.5" transform="matrix(-0.689655 -0.724138 -0.724138 0.689655 372.594 825)" stroke="black" stroke-width="7"/>
<line y1="-3.5" x2="79.9312" y2="-3.5" transform="matrix(-0.688092 -0.725624 -0.725624 0.688092 330.594 843)" stroke="black" stroke-width="7"/>
<path d="M304.641 697.15C305.98 698.544 305.936 700.76 304.542 702.099C303.148 703.438 300.933 703.394 299.593 702L304.641 697.15ZM299.593 702L250.593 651L255.641 646.15L304.641 697.15L299.593 702Z" fill="black"/>
<path d="M188.593 635C187.227 633.633 187.227 631.417 188.593 630.05C189.96 628.683 192.176 628.683 193.543 630.05L188.593 635ZM207.593 654L188.593 635L193.543 630.05L212.543 649.05L207.593 654Z" fill="black"/>
<line y1="-3.5" x2="50.9313" y2="-3.5" transform="matrix(-0.6872 0.726468 0.726468 0.6872 286.594 684)" stroke="black" stroke-width="7"/>
<path d="M278.636 739.145C279.977 740.537 279.935 742.753 278.543 744.093C277.151 745.434 274.935 745.392 273.594 744L278.636 739.145ZM273.594 744L247.594 717L252.636 712.145L278.636 739.145L273.594 744Z" fill="black"/>
<line y1="-3.5" x2="77.1038" y2="-3.5" transform="matrix(-0.687385 -0.726293 -0.726293 0.687385 257.594 785)" stroke="black" stroke-width="7"/>
<line y1="-6" x2="95.483" y2="-6" transform="matrix(-0.691223 -0.722642 -0.722642 0.691223 379.594 775)" stroke="black" stroke-width="12"/>
<path d="M313.594 655C313.594 651.686 316.28 649 319.594 649C322.907 649 325.594 651.686 325.594 655H313.594ZM313.594 706V655H325.594V706H313.594Z" fill="black"/>
<circle cx="10" cy="10" r="10" transform="matrix(-1 0 0 1 399.594 767)" fill="black" stroke="black" stroke-width="7"/>
<line x1="512.475" y1="195.525" x2="525.265" y2="208.316" stroke="black" stroke-width="7"/>
<line x1="511.5" y1="290" x2="511.5" y2="218" stroke="black" stroke-width="7"/>
<line x1="512.525" y1="180.525" x2="521.525" y2="171.525" stroke="black" stroke-width="7"/>
<line x1="539" y1="106.5" x2="597" y2="106.5" stroke="black" stroke-width="7"/>
<line x1="519.525" y1="127.525" x2="541.525" y2="105.525" stroke="black" stroke-width="7"/>
<line x1="520.5" y1="174" x2="520.5" y2="125" stroke="black" stroke-width="7"/>
<line x1="513.5" y1="198" x2="513.5" y2="178" stroke="black" stroke-width="7"/>
<line x1="510.41" y1="220.646" x2="530.41" y2="198.646" stroke="black" stroke-width="7"/>
<line x1="594.555" y1="105.608" x2="653.555" y2="168.608" stroke="black" stroke-width="7"/>
<line x1="652.5" y1="166" x2="652.5" y2="268" stroke="black" stroke-width="7"/>
<line x1="528" y1="199.5" x2="564" y2="199.5" stroke="black" stroke-width="7"/>
<line x1="561.475" y1="198.525" x2="584.475" y2="221.525" stroke="black" stroke-width="7"/>
<line x1="583.5" y1="285" x2="583.5" y2="219" stroke="black" stroke-width="7"/>
<path d="M610.252 315.752C611.608 317.13 613.824 317.148 615.202 315.793C616.58 314.437 616.598 312.221 615.242 310.843L610.252 315.752ZM580 285L610.252 315.752L615.242 310.843L584.99 280.091L580 285Z" fill="black"/>
<path d="M544.871 262.237C543.555 263.653 543.637 265.868 545.054 267.183C546.47 268.498 548.685 268.416 550 267L544.871 262.237ZM550 267L563 253L557.871 248.237L544.871 262.237L550 267Z" fill="black"/>
<line x1="587" y1="251.5" x2="558" y2="251.5" stroke="black" stroke-width="7"/>
<line x1="623.724" y1="295.547" x2="653.516" y2="265.534" stroke="black" stroke-width="7"/>
<path d="M606 249C606 250.933 607.567 252.5 609.5 252.5C611.433 252.5 613 250.933 613 249H606ZM613 249V208H606V249H613Z" fill="black"/>
<line x1="578.549" y1="176.601" x2="610.549" y2="210.601" stroke="black" stroke-width="7"/>
<path d="M617 181C618.933 181 620.5 179.433 620.5 177.5C620.5 175.567 618.933 174 617 174V181ZM617 174H542V181H617V174Z" fill="black"/>
<line x1="520.475" y1="154.525" x2="544.475" y2="178.525" stroke="black" stroke-width="7"/>
<line x1="510.689" y1="287.759" x2="540.689" y2="323.759" stroke="black" stroke-width="7"/>
<path d="M514 440C514 441.933 515.567 443.5 517.5 443.5C519.433 443.5 521 441.933 521 440H514ZM521 440V343H514V440H521Z" fill="black"/>
<line x1="516.428" y1="345.626" x2="540.428" y2="319.626" stroke="black" stroke-width="7"/>
<line x1="586" y1="321.5" x2="536" y2="321.5" stroke="black" stroke-width="7"/>
<path d="M637 354C638.933 354 640.5 352.433 640.5 350.5C640.5 348.567 638.933 347 637 347V354ZM637 347H610V354H637V347Z" fill="black"/>
<line x1="612.444" y1="351.391" x2="583.444" y2="320.391" stroke="black" stroke-width="7"/>
<path d="M642 467C642 468.933 643.567 470.5 645.5 470.5C647.433 470.5 649 468.933 649 467H642ZM649 467V395H642V467H649Z" fill="black"/>
<line x1="644.471" y1="397.581" x2="688.471" y2="351.581" stroke="black" stroke-width="7"/>
<line x1="624.494" y1="291.544" x2="688.494" y2="356.544" stroke="black" stroke-width="7"/>
<path d="M626.5 467V388" stroke="black" stroke-width="7" stroke-linecap="round"/>
<line x1="627.484" y1="443.433" x2="598.484" y2="413.433" stroke="black" stroke-width="7"/>
<path d="M603 376C603 374.067 601.433 372.5 599.5 372.5C597.567 372.5 596 374.067 596 376H603ZM603 416V376H596V416H603Z" fill="black"/>
<path d="M552 423C552 424.933 553.567 426.5 555.5 426.5C557.433 426.5 559 424.933 559 423H552ZM559 423V383H552V423H559Z" fill="black"/>
<line x1="556.464" y1="385.412" x2="517.464" y2="344.412" stroke="black" stroke-width="7"/>
<line x1="597.5" y1="179" x2="597.5" y2="162" stroke="black" stroke-width="7"/>
<line x1="571.519" y1="136.571" x2="598.519" y2="164.571" stroke="black" stroke-width="7"/>
<path d="M560 134C558.067 134 556.5 135.567 556.5 137.5C556.5 139.433 558.067 141 560 141V134ZM560 141H574V134H560V141Z" fill="black"/>
<line x1="737.5" y1="320" x2="737.5" y2="246" stroke="black" stroke-width="7"/>
<line x1="650" y1="191.5" x2="687" y2="191.5" stroke="black" stroke-width="7"/>
<line x1="684.562" y1="190.615" x2="738.562" y2="248.615" stroke="black" stroke-width="7"/>
<path d="M698 251C698 249.067 696.433 247.5 694.5 247.5C692.567 247.5 691 249.067 691 251H698ZM698 282V251H691V282H698Z" fill="black"/>
<line x1="726" y1="316.5" x2="772" y2="316.5" stroke="black" stroke-width="7"/>
<line x1="693.574" y1="279.629" x2="728.574" y2="317.629" stroke="black" stroke-width="7"/>
<line x1="789.5" y1="455" x2="789.5" y2="336" stroke="black" stroke-width="7"/>
<line x1="769.585" y1="315.64" x2="790.585" y2="338.64" stroke="black" stroke-width="7"/>
<line x1="744.5" y1="451.5" x2="787.5" y2="451.5" stroke="black" stroke-width="7" stroke-linecap="round"/>
<path d="M815 484C816.298 485.432 818.512 485.541 819.944 484.243C821.376 482.945 821.485 480.732 820.187 479.299L815 484ZM786 452L815 484L820.187 479.299L791.187 447.299L786 452Z" fill="black"/>
<line x1="736" y1="396" x2="736" y2="334" stroke="black" stroke-width="12"/>
<path d="M649.32 475.714C647.032 478.111 647.12 481.909 649.517 484.197C651.914 486.485 655.712 486.397 658 484L649.32 475.714ZM658 484L742 396L733.32 387.714L649.32 475.714L658 484Z" fill="black"/>
<line x1="698" y1="338" x2="742" y2="338" stroke="black" stroke-width="12"/>
<line x1="670.685" y1="300.252" x2="702.685" y2="340.252" stroke="black" stroke-width="12"/>
<circle cx="669" cy="296" r="10" fill="black" stroke="black" stroke-width="7"/>
<path d="M509.5 728C509.5 726.067 507.933 724.5 506 724.5C504.067 724.5 502.5 726.067 502.5 728H509.5ZM502.5 728V778H509.5V728H502.5Z" fill="black"/>
<line x1="505.695" y1="775.767" x2="534.695" y2="810.767" stroke="black" stroke-width="7"/>
<line x1="511.5" y1="858" x2="511.5" y2="829" stroke="black" stroke-width="7"/>
<line x1="510.525" y1="831.525" x2="535.525" y2="806.525" stroke="black" stroke-width="7"/>
<line x1="543.488" y1="889.438" x2="510.488" y2="855.438" stroke="black" stroke-width="7"/>
<line x1="541" y1="888.5" x2="599" y2="888.5" stroke="black" stroke-width="7"/>
<path d="M579 818C577.067 818 575.5 819.567 575.5 821.5C575.5 823.433 577.067 825 579 825V818ZM579 825H627.01V818H579V825Z" fill="black"/>
<path d="M550 845C548.067 845 546.5 846.567 546.5 848.5C546.5 850.433 548.067 852 550 852V845ZM550 852H601V845H550V852Z" fill="black"/>
<path d="M566 866C564.067 866 562.5 867.567 562.5 869.5C562.5 871.433 564.067 873 566 873V866ZM566 873H582V866H566V873Z" fill="black"/>
<line x1="606" y1="839.5" x2="669" y2="839.5" stroke="black" stroke-width="7"/>
<line x1="662" y1="781.5" x2="742" y2="781.5" stroke="black" stroke-width="7"/>
<line x1="744" y1="649.5" x2="795" y2="649.5" stroke="black" stroke-width="7"/>
<line x1="791.5" y1="646" x2="791.5" y2="729" stroke="black" stroke-width="7"/>
<path d="M527 765C527 766.933 528.567 768.5 530.5 768.5C532.433 768.5 534 766.933 534 765H527ZM534 765V742H527V765H534Z" fill="black"/>
<line x1="529.525" y1="744.525" x2="550.525" y2="723.525" stroke="black" stroke-width="7"/>
<path d="M516.014 686.115C514.665 684.731 512.449 684.702 511.064 686.051C509.68 687.4 509.651 689.616 511 691L516.014 686.115ZM511 691L549 730L554.014 725.115L516.014 686.115L511 691Z" fill="black"/>
<path d="M620 656C620 654.067 618.433 652.5 616.5 652.5C614.567 652.5 613 654.067 613 656H620ZM620 684V656H613V684H620Z" fill="black"/>
<line x1="574.47" y1="726.582" x2="617.47" y2="681.582" stroke="black" stroke-width="7"/>
<line x1="545" y1="725.5" x2="577" y2="725.5" stroke="black" stroke-width="7"/>
<line x1="528" y1="801.5" x2="562" y2="801.5" stroke="black" stroke-width="7"/>
<line x1="576.5" y1="785" x2="576.5" y2="745" stroke="black" stroke-width="7"/>
<line x1="559.398" y1="802.659" x2="577.398" y2="782.659" stroke="black" stroke-width="7"/>
<path d="M648 680C649.367 678.633 649.367 676.417 648 675.05C646.633 673.683 644.417 673.683 643.051 675.05L648 680ZM578 750L648 680L643.051 675.05L573.051 745.05L578 750Z" fill="black"/>
<line x1="579.407" y1="870.65" x2="608.407" y2="838.65" stroke="black" stroke-width="7"/>
<line x1="596.448" y1="889.604" x2="642.448" y2="840.604" stroke="black" stroke-width="7"/>
<line x1="624.466" y1="822.586" x2="664.466" y2="780.586" stroke="black" stroke-width="7"/>
<line x1="666.46" y1="840.592" x2="721.46" y2="782.592" stroke="black" stroke-width="7"/>
<path d="M694.953 697.15C693.613 698.544 693.658 700.76 695.052 702.099C696.446 703.438 698.661 703.394 700 702L694.953 697.15ZM700 702L749 651L743.953 646.15L694.953 697.15L700 702Z" fill="black"/>
<path d="M811 635C812.367 633.633 812.367 631.417 811 630.05C809.633 628.683 807.417 628.683 806.051 630.05L811 635ZM792 654L811 635L806.051 630.05L787.051 649.05L792 654Z" fill="black"/>
<line x1="715.543" y1="681.595" x2="750.543" y2="718.595" stroke="black" stroke-width="7"/>
<path d="M720.957 739.145C719.617 740.537 719.658 742.753 721.051 744.093C722.443 745.434 724.659 745.392 726 744L720.957 739.145ZM726 744L752 717L746.957 712.145L720.957 739.145L726 744Z" fill="black"/>
<line x1="739.458" y1="782.594" x2="792.458" y2="726.594" stroke="black" stroke-width="7"/>
<line x1="615.664" y1="770.853" x2="681.664" y2="701.853" stroke="black" stroke-width="12"/>
<path d="M686 655C686 651.686 683.314 649 680 649C676.686 649 674 651.686 674 655H686ZM686 706V655H674V706H686Z" fill="black"/>
<circle cx="610" cy="777" r="10" fill="black" stroke="black" stroke-width="7"/>
<mask id="path-178-outside-1_119_10" maskUnits="userSpaceOnUse" x="149" y="492" width="704" height="135" fill="black">
<rect fill="white" x="149" y="492" width="704" height="135"/>
<path d="M186.765 623H151.58V495.435H185.99V509.85H165.84V550.77H179.325V565.185H165.84V608.74H186.765V623ZM255.314 603.315V585.18C255.314 579.445 254.384 576.81 250.819 572.315C246.634 566.89 236.714 556.04 232.994 550.305C230.049 545.81 229.119 541.625 229.119 534.185V515.12C229.119 500.86 235.939 494.04 249.734 494.04C263.684 494.04 269.109 501.015 269.109 515.12V538.37H255.779V515.275C255.779 511.09 254.074 508.455 249.734 508.455C245.704 508.455 243.689 510.625 243.689 515.12V534.03C243.689 537.595 244.154 540.075 246.169 542.71C249.269 547.05 259.344 557.745 264.149 564.72C268.179 570.61 269.574 575.105 269.574 585.025V603.315C269.574 616.955 263.684 624.395 249.424 624.395C235.164 624.395 229.119 616.955 229.119 603.315V576.19H242.914V603.315C242.914 607.5 244.774 610.135 249.114 610.135C253.144 610.135 255.314 607.81 255.314 603.315ZM336.352 623H322.092V509.85H308.762V495.435H349.682V509.85H336.352V623ZM419.929 544.415V521.32C419.929 513.415 418.844 509.85 412.024 509.85H406.599V552.63H412.179C417.294 552.63 419.929 549.84 419.929 544.415ZM435.584 623H419.929C417.604 603.625 415.589 585.025 412.489 565.65H406.599V623H392.184V495.435H412.024C426.904 495.435 434.499 501.635 434.499 518.375V544.26C434.499 554.18 431.864 559.45 426.129 562.705C429.849 583.165 432.639 603.005 435.584 623ZM524.248 623H509.833L507.508 603.315H491.853C490.768 609.98 490.148 616.335 489.373 623H475.423L492.008 495.435H508.593L524.248 623ZM493.248 590.14H505.958C503.633 570.765 501.618 552.01 499.758 532.17C497.898 552.01 495.728 571.385 493.248 590.14ZM593.675 601.3V517.29C593.675 512.33 591.66 509.85 587.475 509.85H581.585V608.74H587.475C591.66 608.74 593.675 606.26 593.675 601.3ZM587.475 623H567.325V495.435H587.475C601.115 495.435 607.935 503.65 607.935 517.29V601.3C607.935 615.715 601.115 623 587.475 623ZM696.51 623H682.095L679.77 603.315H664.115C663.03 609.98 662.41 616.335 661.635 623H647.685L664.27 495.435H680.855L696.51 623ZM665.51 590.14H678.22C675.895 570.765 673.88 552.01 672.02 532.17C670.16 552.01 667.99 571.385 665.51 590.14ZM756.638 623H742.378V509.85H729.048V495.435H769.968V509.85H756.638V623ZM850.911 623H836.496L834.171 603.315H818.516C817.431 609.98 816.811 616.335 816.036 623H802.086L818.671 495.435H835.256L850.911 623ZM819.911 590.14H832.621C830.296 570.765 828.281 552.01 826.421 532.17C824.561 552.01 822.391 571.385 819.911 590.14Z"/>
</mask>
<path d="M186.765 623H151.58V495.435H185.99V509.85H165.84V550.77H179.325V565.185H165.84V608.74H186.765V623ZM255.314 603.315V585.18C255.314 579.445 254.384 576.81 250.819 572.315C246.634 566.89 236.714 556.04 232.994 550.305C230.049 545.81 229.119 541.625 229.119 534.185V515.12C229.119 500.86 235.939 494.04 249.734 494.04C263.684 494.04 269.109 501.015 269.109 515.12V538.37H255.779V515.275C255.779 511.09 254.074 508.455 249.734 508.455C245.704 508.455 243.689 510.625 243.689 515.12V534.03C243.689 537.595 244.154 540.075 246.169 542.71C249.269 547.05 259.344 557.745 264.149 564.72C268.179 570.61 269.574 575.105 269.574 585.025V603.315C269.574 616.955 263.684 624.395 249.424 624.395C235.164 624.395 229.119 616.955 229.119 603.315V576.19H242.914V603.315C242.914 607.5 244.774 610.135 249.114 610.135C253.144 610.135 255.314 607.81 255.314 603.315ZM336.352 623H322.092V509.85H308.762V495.435H349.682V509.85H336.352V623ZM419.929 544.415V521.32C419.929 513.415 418.844 509.85 412.024 509.85H406.599V552.63H412.179C417.294 552.63 419.929 549.84 419.929 544.415ZM435.584 623H419.929C417.604 603.625 415.589 585.025 412.489 565.65H406.599V623H392.184V495.435H412.024C426.904 495.435 434.499 501.635 434.499 518.375V544.26C434.499 554.18 431.864 559.45 426.129 562.705C429.849 583.165 432.639 603.005 435.584 623ZM524.248 623H509.833L507.508 603.315H491.853C490.768 609.98 490.148 616.335 489.373 623H475.423L492.008 495.435H508.593L524.248 623ZM493.248 590.14H505.958C503.633 570.765 501.618 552.01 499.758 532.17C497.898 552.01 495.728 571.385 493.248 590.14ZM593.675 601.3V517.29C593.675 512.33 591.66 509.85 587.475 509.85H581.585V608.74H587.475C591.66 608.74 593.675 606.26 593.675 601.3ZM587.475 623H567.325V495.435H587.475C601.115 495.435 607.935 503.65 607.935 517.29V601.3C607.935 615.715 601.115 623 587.475 623ZM696.51 623H682.095L679.77 603.315H664.115C663.03 609.98 662.41 616.335 661.635 623H647.685L664.27 495.435H680.855L696.51 623ZM665.51 590.14H678.22C675.895 570.765 673.88 552.01 672.02 532.17C670.16 552.01 667.99 571.385 665.51 590.14ZM756.638 623H742.378V509.85H729.048V495.435H769.968V509.85H756.638V623ZM850.911 623H836.496L834.171 603.315H818.516C817.431 609.98 816.811 616.335 816.036 623H802.086L818.671 495.435H835.256L850.911 623ZM819.911 590.14H832.621C830.296 570.765 828.281 552.01 826.421 532.17C824.561 552.01 822.391 571.385 819.911 590.14Z" fill="black"/>
<path d="M186.765 623V625C187.87 625 188.765 624.105 188.765 623H186.765ZM151.58 623H149.58C149.58 624.105 150.475 625 151.58 625V623ZM151.58 495.435V493.435C150.475 493.435 149.58 494.33 149.58 495.435H151.58ZM185.99 495.435H187.99C187.99 494.33 187.095 493.435 185.99 493.435V495.435ZM185.99 509.85V511.85C187.095 511.85 187.99 510.955 187.99 509.85H185.99ZM165.84 509.85V507.85C164.735 507.85 163.84 508.745 163.84 509.85H165.84ZM165.84 550.77H163.84C163.84 551.875 164.735 552.77 165.84 552.77V550.77ZM179.325 550.77H181.325C181.325 549.665 180.43 548.77 179.325 548.77V550.77ZM179.325 565.185V567.185C180.43 567.185 181.325 566.29 181.325 565.185H179.325ZM165.84 565.185V563.185C164.735 563.185 163.84 564.08 163.84 565.185H165.84ZM165.84 608.74H163.84C163.84 609.845 164.735 610.74 165.84 610.74V608.74ZM186.765 608.74H188.765C188.765 607.635 187.87 606.74 186.765 606.74V608.74ZM186.765 621H151.58V625H186.765V621ZM153.58 623V495.435H149.58V623H153.58ZM151.58 497.435H185.99V493.435H151.58V497.435ZM183.99 495.435V509.85H187.99V495.435H183.99ZM185.99 507.85H165.84V511.85H185.99V507.85ZM163.84 509.85V550.77H167.84V509.85H163.84ZM165.84 552.77H179.325V548.77H165.84V552.77ZM177.325 550.77V565.185H181.325V550.77H177.325ZM179.325 563.185H165.84V567.185H179.325V563.185ZM163.84 565.185V608.74H167.84V565.185H163.84ZM165.84 610.74H186.765V606.74H165.84V610.74ZM184.765 608.74V623H188.765V608.74H184.765ZM250.819 572.315L249.235 573.537C249.241 573.544 249.246 573.551 249.252 573.558L250.819 572.315ZM232.994 550.305L234.672 549.217L234.667 549.209L232.994 550.305ZM269.109 538.37V540.37C270.213 540.37 271.109 539.475 271.109 538.37H269.109ZM255.779 538.37H253.779C253.779 539.475 254.674 540.37 255.779 540.37V538.37ZM246.169 542.71L247.796 541.548C247.784 541.53 247.771 541.512 247.757 541.495L246.169 542.71ZM264.149 564.72L265.799 563.591L265.796 563.585L264.149 564.72ZM229.119 576.19V574.19C228.014 574.19 227.119 575.085 227.119 576.19H229.119ZM242.914 576.19H244.914C244.914 575.085 244.018 574.19 242.914 574.19V576.19ZM257.314 603.315V585.18H253.314V603.315H257.314ZM257.314 585.18C257.314 582.215 257.076 579.865 256.291 577.622C255.506 575.379 254.227 573.394 252.386 571.072L249.252 573.558C250.976 575.731 251.944 577.311 252.515 578.943C253.086 580.575 253.314 582.41 253.314 585.18H257.314ZM252.402 571.093C250.274 568.334 246.692 564.201 243.26 560.136C239.772 556.005 236.45 551.958 234.672 549.217L231.316 551.393C233.257 554.387 236.755 558.632 240.204 562.717C243.708 566.866 247.179 570.871 249.235 573.537L252.402 571.093ZM234.667 549.209C232.014 545.161 231.119 541.411 231.119 534.185H227.119C227.119 541.839 228.083 546.459 231.321 551.401L234.667 549.209ZM231.119 534.185V515.12H227.119V534.185H231.119ZM231.119 515.12C231.119 508.276 232.757 503.607 235.679 500.635C238.595 497.669 243.139 496.04 249.734 496.04V492.04C242.534 492.04 236.77 493.821 232.827 497.83C228.891 501.833 227.119 507.704 227.119 515.12H231.119ZM249.734 496.04C256.401 496.04 260.58 497.703 263.154 500.615C265.777 503.582 267.109 508.258 267.109 515.12H271.109C271.109 507.877 269.728 502.013 266.151 497.966C262.525 493.864 257.016 492.04 249.734 492.04V496.04ZM267.109 515.12V538.37H271.109V515.12H267.109ZM269.109 536.37H255.779V540.37H269.109V536.37ZM257.779 538.37V515.275H253.779V538.37H257.779ZM257.779 515.275C257.779 512.963 257.316 510.718 255.931 509.028C254.482 507.261 252.326 506.455 249.734 506.455V510.455C251.482 510.455 252.348 510.967 252.837 511.563C253.389 512.237 253.779 513.402 253.779 515.275H257.779ZM249.734 506.455C247.37 506.455 245.232 507.099 243.722 508.754C242.245 510.373 241.689 512.616 241.689 515.12H245.689C245.689 513.129 246.14 512.039 246.678 511.45C247.183 510.896 248.067 510.455 249.734 510.455V506.455ZM241.689 515.12V534.03H245.689V515.12H241.689ZM241.689 534.03C241.689 537.822 242.193 540.804 244.58 543.925L247.757 541.495C246.114 539.346 245.689 537.368 245.689 534.03H241.689ZM244.541 543.872C246.159 546.138 249.547 550.003 253.001 554.029C256.521 558.132 260.17 562.469 262.502 565.855L265.796 563.585C263.323 559.996 259.532 555.498 256.037 551.425C252.478 547.275 249.278 543.622 247.796 541.548L244.541 543.872ZM262.498 565.849C264.432 568.676 265.668 571.069 266.444 573.892C267.228 576.744 267.574 580.145 267.574 585.025H271.574C271.574 579.985 271.222 576.179 270.301 572.831C269.372 569.453 267.896 566.654 265.799 563.591L262.498 565.849ZM267.574 585.025V603.315H271.574V585.025H267.574ZM267.574 603.315C267.574 609.895 266.147 614.58 263.369 617.621C260.625 620.627 256.223 622.395 249.424 622.395V626.395C256.884 626.395 262.557 624.443 266.323 620.319C270.056 616.23 271.574 610.375 271.574 603.315H267.574ZM249.424 622.395C242.624 622.395 238.177 620.627 235.393 617.613C232.579 614.568 231.119 609.883 231.119 603.315H227.119C227.119 610.387 228.681 616.242 232.455 620.327C236.258 624.443 241.963 626.395 249.424 626.395V622.395ZM231.119 603.315V576.19H227.119V603.315H231.119ZM229.119 578.19H242.914V574.19H229.119V578.19ZM240.914 576.19V603.315H244.914V576.19H240.914ZM240.914 603.315C240.914 605.663 241.43 607.91 242.864 609.592C244.348 611.332 246.524 612.135 249.114 612.135V608.135C247.363 608.135 246.44 607.62 245.908 606.997C245.327 606.315 244.914 605.152 244.914 603.315H240.914ZM249.114 612.135C251.514 612.135 253.671 611.432 255.2 609.761C256.702 608.12 257.314 605.855 257.314 603.315H253.314C253.314 605.27 252.84 606.415 252.25 607.06C251.687 607.675 250.743 608.135 249.114 608.135V612.135ZM336.352 623V625C337.457 625 338.352 624.105 338.352 623H336.352ZM322.092 623H320.092C320.092 624.105 320.988 625 322.092 625V623ZM322.092 509.85H324.092C324.092 508.745 323.197 507.85 322.092 507.85V509.85ZM308.762 509.85H306.762C306.762 510.955 307.658 511.85 308.762 511.85V509.85ZM308.762 495.435V493.435C307.658 493.435 306.762 494.33 306.762 495.435H308.762ZM349.682 495.435H351.682C351.682 494.33 350.787 493.435 349.682 493.435V495.435ZM349.682 509.85V511.85C350.787 511.85 351.682 510.955 351.682 509.85H349.682ZM336.352 509.85V507.85C335.248 507.85 334.352 508.745 334.352 509.85H336.352ZM336.352 621H322.092V625H336.352V621ZM324.092 623V509.85H320.092V623H324.092ZM322.092 507.85H308.762V511.85H322.092V507.85ZM310.762 509.85V495.435H306.762V509.85H310.762ZM308.762 497.435H349.682V493.435H308.762V497.435ZM347.682 495.435V509.85H351.682V495.435H347.682ZM349.682 507.85H336.352V511.85H349.682V507.85ZM334.352 509.85V623H338.352V509.85H334.352ZM406.599 509.85V507.85C405.494 507.85 404.599 508.745 404.599 509.85H406.599ZM406.599 552.63H404.599C404.599 553.735 405.494 554.63 406.599 554.63V552.63ZM435.584 623V625C436.165 625 436.717 624.747 437.097 624.307C437.477 623.867 437.647 623.284 437.562 622.709L435.584 623ZM419.929 623L417.943 623.238C418.063 624.243 418.916 625 419.929 625V623ZM412.489 565.65L414.464 565.334C414.308 564.364 413.471 563.65 412.489 563.65V565.65ZM406.599 565.65V563.65C405.494 563.65 404.599 564.545 404.599 565.65H406.599ZM406.599 623V625C407.703 625 408.599 624.105 408.599 623H406.599ZM392.184 623H390.184C390.184 624.105 391.079 625 392.184 625V623ZM392.184 495.435V493.435C391.079 493.435 390.184 494.33 390.184 495.435H392.184ZM426.129 562.705L425.141 560.966C424.402 561.385 424.009 562.226 424.161 563.063L426.129 562.705ZM421.929 544.415V521.32H417.929V544.415H421.929ZM421.929 521.32C421.929 517.435 421.697 514.015 420.25 511.594C418.611 508.853 415.773 507.85 412.024 507.85V511.85C415.094 511.85 416.209 512.629 416.817 513.647C417.617 514.985 417.929 517.3 417.929 521.32H421.929ZM412.024 507.85H406.599V511.85H412.024V507.85ZM404.599 509.85V552.63H408.599V509.85H404.599ZM406.599 554.63H412.179V550.63H406.599V554.63ZM412.179 554.63C415.09 554.63 417.634 553.829 419.426 551.93C421.199 550.051 421.929 547.422 421.929 544.415H417.929C417.929 546.833 417.341 548.312 416.517 549.184C415.713 550.036 414.382 550.63 412.179 550.63V554.63ZM435.584 621H419.929V625H435.584V621ZM421.914 622.762C419.593 603.417 417.572 584.759 414.464 565.334L410.514 565.966C413.606 585.291 415.614 603.833 417.943 623.238L421.914 622.762ZM412.489 563.65H406.599V567.65H412.489V563.65ZM404.599 565.65V623H408.599V565.65H404.599ZM406.599 621H392.184V625H406.599V621ZM394.184 623V495.435H390.184V623H394.184ZM392.184 497.435H412.024V493.435H392.184V497.435ZM412.024 497.435C419.242 497.435 424.233 498.947 427.449 502.064C430.654 505.169 432.499 510.261 432.499 518.375H436.499C436.499 509.749 434.546 503.371 430.233 499.191C425.931 495.023 419.686 493.435 412.024 493.435V497.435ZM432.499 518.375V544.26H436.499V518.375H432.499ZM432.499 544.26C432.499 549.066 431.856 552.54 430.65 555.14C429.468 557.686 427.687 559.521 425.141 560.966L427.116 564.444C430.305 562.634 432.709 560.206 434.278 556.824C435.823 553.495 436.499 549.374 436.499 544.26H432.499ZM424.161 563.063C427.873 583.481 430.657 603.278 433.605 623.291L437.562 622.709C434.62 602.732 431.824 582.849 428.096 562.347L424.161 563.063ZM524.248 623V625C524.821 625 525.367 624.754 525.746 624.325C526.126 623.896 526.303 623.325 526.234 622.756L524.248 623ZM509.833 623L507.847 623.235C507.966 624.241 508.82 625 509.833 625V623ZM507.508 603.315L509.495 603.08C509.376 602.074 508.522 601.315 507.508 601.315V603.315ZM491.853 603.315V601.315C490.873 601.315 490.037 602.026 489.879 602.994L491.853 603.315ZM489.373 623V625C490.389 625 491.243 624.239 491.36 623.231L489.373 623ZM475.423 623L473.44 622.742C473.366 623.313 473.541 623.888 473.921 624.32C474.301 624.752 474.848 625 475.423 625V623ZM492.008 495.435V493.435C491.004 493.435 490.155 494.181 490.025 495.177L492.008 495.435ZM508.593 495.435L510.579 495.191C510.455 494.189 509.604 493.435 508.593 493.435V495.435ZM493.248 590.14L491.266 589.878C491.19 590.449 491.365 591.025 491.744 591.458C492.124 591.892 492.672 592.14 493.248 592.14V590.14ZM505.958 590.14V592.14C506.53 592.14 507.075 591.895 507.455 591.467C507.834 591.039 508.012 590.47 507.944 589.902L505.958 590.14ZM499.758 532.17L501.75 531.983C501.653 530.956 500.791 530.17 499.758 530.17C498.726 530.17 497.864 530.956 497.767 531.983L499.758 532.17ZM524.248 621H509.833V625H524.248V621ZM511.82 622.765L509.495 603.08L505.522 603.55L507.847 623.235L511.82 622.765ZM507.508 601.315H491.853V605.315H507.508V601.315ZM489.879 602.994C488.785 609.718 488.156 616.15 487.387 622.769L491.36 623.231C492.14 616.52 492.752 610.242 493.827 603.636L489.879 602.994ZM489.373 621H475.423V625H489.373V621ZM477.407 623.258L493.992 495.693L490.025 495.177L473.44 622.742L477.407 623.258ZM492.008 497.435H508.593V493.435H492.008V497.435ZM506.608 495.679L522.263 623.244L526.234 622.756L510.579 495.191L506.608 495.679ZM493.248 592.14H505.958V588.14H493.248V592.14ZM507.944 589.902C505.621 570.543 503.608 551.806 501.75 531.983L497.767 532.357C499.629 552.214 501.646 570.987 503.973 590.378L507.944 589.902ZM497.767 531.983C495.909 551.8 493.742 571.15 491.266 589.878L495.231 590.402C497.715 571.62 499.888 552.22 501.75 532.357L497.767 531.983ZM581.585 509.85V507.85C580.481 507.85 579.585 508.745 579.585 509.85H581.585ZM581.585 608.74H579.585C579.585 609.845 580.481 610.74 581.585 610.74V608.74ZM567.325 623H565.325C565.325 624.105 566.221 625 567.325 625V623ZM567.325 495.435V493.435C566.221 493.435 565.325 494.33 565.325 495.435H567.325ZM595.675 601.3V517.29H591.675V601.3H595.675ZM595.675 517.29C595.675 514.592 595.136 512.186 593.685 510.434C592.172 508.608 589.975 507.85 587.475 507.85V511.85C589.16 511.85 590.063 512.332 590.604 512.986C591.207 513.714 591.675 515.028 591.675 517.29H595.675ZM587.475 507.85H581.585V511.85H587.475V507.85ZM579.585 509.85V608.74H583.585V509.85H579.585ZM581.585 610.74H587.475V606.74H581.585V610.74ZM587.475 610.74C589.975 610.74 592.172 609.982 593.685 608.156C595.136 606.404 595.675 603.998 595.675 601.3H591.675C591.675 603.562 591.207 604.876 590.604 605.604C590.063 606.258 589.16 606.74 587.475 606.74V610.74ZM587.475 621H567.325V625H587.475V621ZM569.325 623V495.435H565.325V623H569.325ZM567.325 497.435H587.475V493.435H567.325V497.435ZM587.475 497.435C593.885 497.435 598.4 499.352 601.339 502.591C604.307 505.863 605.935 510.778 605.935 517.29H609.935C609.935 510.162 608.154 504.15 604.301 499.904C600.42 495.625 594.705 493.435 587.475 493.435V497.435ZM605.935 517.29V601.3H609.935V517.29H605.935ZM605.935 601.3C605.935 608.226 604.295 613.071 601.364 616.185C598.454 619.276 593.952 621 587.475 621V625C594.638 625 600.366 623.081 604.277 618.926C608.166 614.794 609.935 608.789 609.935 601.3H605.935ZM696.51 623V625C697.083 625 697.629 624.754 698.008 624.325C698.388 623.896 698.565 623.325 698.495 622.756L696.51 623ZM682.095 623L680.109 623.235C680.228 624.241 681.082 625 682.095 625V623ZM679.77 603.315L681.757 603.08C681.638 602.074 680.784 601.315 679.77 601.315V603.315ZM664.115 603.315V601.315C663.135 601.315 662.299 602.026 662.141 602.994L664.115 603.315ZM661.635 623V625C662.651 625 663.505 624.239 663.622 623.231L661.635 623ZM647.685 623L645.702 622.742C645.628 623.313 645.803 623.888 646.183 624.32C646.562 624.752 647.11 625 647.685 625V623ZM664.27 495.435V493.435C663.266 493.435 662.417 494.181 662.287 495.177L664.27 495.435ZM680.855 495.435L682.84 495.191C682.717 494.189 681.866 493.435 680.855 493.435V495.435ZM665.51 590.14L663.528 589.878C663.452 590.449 663.627 591.025 664.006 591.458C664.386 591.892 664.934 592.14 665.51 592.14V590.14ZM678.22 590.14V592.14C678.792 592.14 679.337 591.895 679.716 591.467C680.096 591.039 680.274 590.47 680.206 589.902L678.22 590.14ZM672.02 532.17L674.012 531.983C673.915 530.956 673.053 530.17 672.02 530.17C670.988 530.17 670.125 530.956 670.029 531.983L672.02 532.17ZM696.51 621H682.095V625H696.51V621ZM684.082 622.765L681.757 603.08L677.784 603.55L680.109 623.235L684.082 622.765ZM679.77 601.315H664.115V605.315H679.77V601.315ZM662.141 602.994C661.047 609.718 660.418 616.15 659.649 622.769L663.622 623.231C664.402 616.52 665.014 610.242 666.089 603.636L662.141 602.994ZM661.635 621H647.685V625H661.635V621ZM649.669 623.258L666.254 495.693L662.287 495.177L645.702 622.742L649.669 623.258ZM664.27 497.435H680.855V493.435H664.27V497.435ZM678.87 495.679L694.525 623.244L698.495 622.756L682.84 495.191L678.87 495.679ZM665.51 592.14H678.22V588.14H665.51V592.14ZM680.206 589.902C677.883 570.543 675.87 551.806 674.012 531.983L670.029 532.357C671.891 552.214 673.908 570.987 676.235 590.378L680.206 589.902ZM670.029 531.983C668.171 551.8 666.004 571.15 663.528 589.878L667.493 590.402C669.977 571.62 672.149 552.22 674.012 532.357L670.029 531.983ZM756.638 623V625C757.743 625 758.638 624.105 758.638 623H756.638ZM742.378 623H740.378C740.378 624.105 741.274 625 742.378 625V623ZM742.378 509.85H744.378C744.378 508.745 743.483 507.85 742.378 507.85V509.85ZM729.048 509.85H727.048C727.048 510.955 727.944 511.85 729.048 511.85V509.85ZM729.048 495.435V493.435C727.944 493.435 727.048 494.33 727.048 495.435H729.048ZM769.968 495.435H771.968C771.968 494.33 771.073 493.435 769.968 493.435V495.435ZM769.968 509.85V511.85C771.073 511.85 771.968 510.955 771.968 509.85H769.968ZM756.638 509.85V507.85C755.534 507.85 754.638 508.745 754.638 509.85H756.638ZM756.638 621H742.378V625H756.638V621ZM744.378 623V509.85H740.378V623H744.378ZM742.378 507.85H729.048V511.85H742.378V507.85ZM731.048 509.85V495.435H727.048V509.85H731.048ZM729.048 497.435H769.968V493.435H729.048V497.435ZM767.968 495.435V509.85H771.968V495.435H767.968ZM769.968 507.85H756.638V511.85H769.968V507.85ZM754.638 509.85V623H758.638V509.85H754.638ZM850.911 623V625C851.484 625 852.029 624.754 852.409 624.325C852.788 623.896 852.966 623.325 852.896 622.756L850.911 623ZM836.496 623L834.51 623.235C834.629 624.241 835.482 625 836.496 625V623ZM834.171 603.315L836.157 603.08C836.038 602.074 835.185 601.315 834.171 601.315V603.315ZM818.516 603.315V601.315C817.535 601.315 816.699 602.026 816.542 602.994L818.516 603.315ZM816.036 623V625C817.051 625 817.905 624.239 818.023 623.231L816.036 623ZM802.086 623L800.103 622.742C800.028 623.313 800.204 623.888 800.583 624.32C800.963 624.752 801.511 625 802.086 625V623ZM818.671 495.435V493.435C817.666 493.435 816.817 494.181 816.688 495.177L818.671 495.435ZM835.256 495.435L837.241 495.191C837.118 494.189 836.266 493.435 835.256 493.435V495.435ZM819.911 590.14L817.928 589.878C817.853 590.449 818.027 591.025 818.407 591.458C818.787 591.892 819.335 592.14 819.911 592.14V590.14ZM832.621 590.14V592.14C833.193 592.14 833.737 591.895 834.117 591.467C834.497 591.039 834.675 590.47 834.607 589.902L832.621 590.14ZM826.421 532.17L828.412 531.983C828.316 530.956 827.453 530.17 826.421 530.17C825.389 530.17 824.526 530.956 824.43 531.983L826.421 532.17ZM850.911 621H836.496V625H850.911V621ZM838.482 622.765L836.157 603.08L832.185 603.55L834.51 623.235L838.482 622.765ZM834.171 601.315H818.516V605.315H834.171V601.315ZM816.542 602.994C815.447 609.718 814.819 616.15 814.049 622.769L818.023 623.231C818.803 616.52 819.415 610.242 820.49 603.636L816.542 602.994ZM816.036 621H802.086V625H816.036V621ZM804.069 623.258L820.654 495.693L816.688 495.177L800.103 622.742L804.069 623.258ZM818.671 497.435H835.256V493.435H818.671V497.435ZM833.271 495.679L848.926 623.244L852.896 622.756L837.241 495.191L833.271 495.679ZM819.911 592.14H832.621V588.14H819.911V592.14ZM834.607 589.902C832.284 570.543 830.271 551.806 828.412 531.983L824.43 532.357C826.291 552.214 828.308 570.987 830.635 590.378L834.607 589.902ZM824.43 531.983C822.572 551.8 820.405 571.15 817.928 589.878L821.894 590.402C824.377 571.62 826.55 552.22 828.412 532.357L824.43 531.983Z" fill="black" mask="url(#path-178-outside-1_119_10)"/>
</svg>
